<svg xmlns="http://www.w3.org/2000/svg" width="20" height="18" viewBox="0 0 20 18">
  <g>
    <path d="M14,15.3333702 C14,15.7015143 13.582169,16 13.0666901,16 L0.933309851,16 C0.417831005,16 0,15.7015143 0,15.3333702 L0,6.6666693 C0,6.2984462 0.417831005,6 0.933309851,6 L13.0666901,6 C13.582169,6 14,6.29852513 14,6.6666693 L14,15.3333702 Z"/>
    <circle cx="3.5" cy="3.5" r="2.5"/>
    <circle cx="11" cy="3" r="3"/>
    <path d="M20,17.4000342 C20,17.4000342 19.9167219,18 19.3333138,18 C18.7499476,18 15,14.6418984 15,14.2000154 L15,9.80002482 C15,9.35818207 18.6667114,6 19.3333138,6 C20,6 20,6.60000604 20,6.60000604 L20,17.4000342 Z"/>
  </g>
</svg>
