<svg xmlns="http://www.w3.org/2000/svg" width="16" height="24" viewBox="0 0 16 24">
  <path fill="#DB206F" d="M4.23653714,66.9684526 C4.48657166,67.09308 4.75032504,66.8231977 4.59724268,66.5998252 C3.7663317,65.3873156 2.97950508,63.3470022 4.23310742,60.7193556 C6.32364366,56.3375132 7.59573299,54.0680234 7.59573299,54.0680234 C7.59573299,54.0680234 8.27234867,56.7164935 10.1064929,59.0713559 C11.87175,61.3377476 12.8379674,64.1881393 11.2802916,66.5626879 C11.1341105,66.7855507 11.3918828,67.0484918 11.6402861,66.9293153 C13.5684547,66.0045312 15.7310985,64.1495119 15.9751102,60.4580615 C16.0650774,59.3300617 15.9301474,57.7508463 15.2554558,55.7580231 C14.3879472,53.232298 13.3214734,52.0537492 12.7044177,51.5476316 C12.5198405,51.3962199 12.2327901,51.5304159 12.2479311,51.7599061 C12.4277401,54.4851606 11.3342469,55.1767291 10.7118374,53.6181803 C10.4632668,52.9956706 10.3182986,51.9189649 10.3182986,50.6077494 C10.3182986,48.4248086 9.64281224,46.1776717 8.15360527,44.3516328 C7.76634036,43.8767702 7.31319984,43.4330447 6.79330537,43.0546527 C6.60508935,42.9176331 6.33225977,43.0553585 6.34949199,43.278182 C6.46384368,44.7580249 6.36024122,48.9991615 2.3917692,54.0659841 C-1.206461,58.7660226 0.187843265,62.3756298 0.68260044,63.3532767 C1.62853233,65.2261784 2.94796845,66.3260605 4.23653714,66.9684526 Z" transform="translate(0 -43)"/>
</svg>
