<svg xmlns="http://www.w3.org/2000/svg" width="21" height="22" viewBox="0 0 21 22">
  <path fill="#FFF" d="M10.5,0.5 C4.7103,0.5 0,5.2103 0,11 C0,16.7897 4.7103,21.5 10.5,21.5 C16.2897,21.5 21,16.7897 21,11 C21,5.2103 16.2897,0.5 10.5,0.5 Z M15.8543333,11.8097319 L8.521,17.4347498 C8.46466667,17.4778749 8.399,17.5 8.33333333,17.5 C8.28,17.5 8.22633333,17.48575 8.17766667,17.4564999 C8.06833333,17.3916247 8,17.2641242 8,17.1249988 L8,5.87496296 C8,5.73583752 8.06833333,5.60833711 8.17766667,5.5434619 C8.287,5.4782117 8.419,5.48721172 8.52133333,5.56521197 L15.8546667,11.1902299 C15.9453333,11.2599801 16,11.3758555 16,11.4999809 C16,11.6241063 15.9453333,11.7399816 15.8543333,11.8097319 Z"/>
</svg>
