<svg xmlns="http://www.w3.org/2000/svg" width="59" height="20" viewBox="0 0 59 20">
  <path fill-rule="evenodd" d="M8.89066675,19 L5.98366675,13.661 L4.88166675,13.661 L4.88166675,19 L1.68966675,19 L1.68966675,5.548 L6.81966675,5.548 C7.46566998,5.548 8.09583034,5.61449934 8.71016675,5.7475 C9.32450315,5.88050067 9.87549764,6.10533175 10.3631667,6.422 C10.8508359,6.73866825 11.240332,7.15666407 11.5316667,7.676 C11.8230015,8.19533593 11.9686667,8.84132947 11.9686667,9.614 C11.9686667,10.5260046 11.7216692,11.2923302 11.2276667,11.913 C10.7336643,12.5336698 10.0496711,12.9769987 9.17566675,13.243 L12.6906667,19 L8.89066675,19 Z M8.75766675,9.671 C8.75766675,9.35433175 8.69116741,9.09783432 8.55816675,8.9015 C8.42516608,8.70516568 8.25416779,8.55316721 8.04516675,8.4455 C7.8361657,8.3378328 7.60183471,8.26500019 7.34216675,8.227 C7.08249878,8.18899981 6.83233462,8.17 6.59166675,8.17 L4.86266675,8.17 L4.86266675,11.305 L6.40166675,11.305 C6.66766808,11.305 6.93999869,11.2828336 7.21866675,11.2385 C7.49733481,11.1941664 7.75066561,11.1150006 7.97866675,11.001 C8.20666789,10.8869994 8.39349935,10.7223344 8.53916675,10.507 C8.68483414,10.2916656 8.75766675,10.0130017 8.75766675,9.671 Z M19.499,20.425 C19.3089991,20.9190025 19.0968346,21.3591647 18.8625,21.7455 C18.6281655,22.1318353 18.3495017,22.4611653 18.0265,22.7335 C17.7034984,23.0058347 17.3235022,23.211666 16.8865,23.351 C16.4494979,23.490334 15.9333364,23.56 15.338,23.56 C15.0466653,23.56 14.7458349,23.5410002 14.4355,23.503 C14.1251652,23.4649998 13.8560012,23.4143337 13.628,23.351 L13.97,20.729 C14.1220008,20.7796669 14.2898325,20.8208332 14.4735,20.8525 C14.6571676,20.8841668 14.8249993,20.9 14.977,20.9 C15.4583358,20.9 15.8066656,20.7891678 16.022,20.5675 C16.2373345,20.3458322 16.4209993,20.0323354 16.573,19.627 L16.877,18.848 L12.925,9.538 L16.383,9.538 L18.492,15.618 L18.549,15.618 L20.43,9.538 L23.736,9.538 L19.499,20.425 Z M28.4733333,11.875 L28.4733333,15.485 C28.4733333,15.9283355 28.5588325,16.2608322 28.7298333,16.4825 C28.9008342,16.7041678 29.2079978,16.815 29.6513333,16.815 C29.8033341,16.815 29.9648325,16.8023335 30.1358333,16.777 C30.3068342,16.7516665 30.4493328,16.7136669 30.5633333,16.663 L30.6013333,18.943 C30.3859989,19.0190004 30.1136683,19.0854997 29.7843333,19.1425 C29.4549984,19.1995003 29.1256683,19.228 28.7963333,19.228 C28.1629968,19.228 27.6310022,19.1488341 27.2003333,18.9905 C26.7696645,18.8321659 26.4245013,18.6041682 26.1648333,18.3065 C25.9051654,18.0088318 25.7183339,17.6541687 25.6043333,17.2425 C25.4903328,16.8308313 25.4333333,16.3716692 25.4333333,15.865 L25.4333333,11.875 L23.9133333,11.875 L23.9133333,9.538 L25.4143333,9.538 L25.4143333,7.049 L28.4733333,7.049 L28.4733333,9.538 L30.6963333,9.538 L30.6963333,11.875 L28.4733333,11.875 Z M38.5496667,19 L38.5496667,13.87 C38.5496667,13.6039987 38.5306668,13.3506679 38.4926667,13.11 C38.4546665,12.8693321 38.3818339,12.6571676 38.2741667,12.4735 C38.1664994,12.2898324 38.0240009,12.1441672 37.8466667,12.0365 C37.6693324,11.9288328 37.4413347,11.875 37.1626667,11.875 C36.6179973,11.875 36.2000014,12.0681647 35.9086667,12.4545 C35.6173319,12.8408353 35.4716667,13.3189972 35.4716667,13.889 L35.4716667,19 L32.3556667,19 L32.3556667,4.636 L35.4716667,4.636 L35.4716667,10.735 L35.5096667,10.735 C35.7250011,10.3549981 36.0669976,10.0161682 36.5356667,9.7185 C37.0043357,9.42083185 37.5679967,9.272 38.2266667,9.272 C38.8726699,9.272 39.4141645,9.38599886 39.8511667,9.614 C40.2881688,9.84200114 40.642832,10.1364982 40.9151667,10.4975 C41.1875013,10.8585018 41.3838327,11.273331 41.5041667,11.742 C41.6245006,12.210669 41.6846667,12.679331 41.6846667,13.148 L41.6846667,19 L38.5496667,19 Z M56.283,19 L56.283,13.832 C56.283,13.5659987 56.2640001,13.3095012 56.226,13.0625 C56.1879998,12.8154988 56.1183338,12.6033342 56.017,12.426 C55.9156661,12.2486658 55.7795008,12.1061672 55.6085,11.9985 C55.4374991,11.8908328 55.212668,11.837 54.934,11.837 C54.6679986,11.837 54.4368343,11.8939994 54.2405,12.008 C54.0441656,12.1220006 53.8795006,12.2739991 53.7465,12.464 C53.6134993,12.654001 53.5153336,12.8724988 53.452,13.1195 C53.3886663,13.3665012 53.357,13.6229987 53.357,13.889 L53.357,19 L50.241,19 L50.241,13.604 C50.241,13.0593306 50.1333344,12.6286683 49.918,12.312 C49.7026655,11.9953318 49.360669,11.837 48.892,11.837 C48.3979975,11.837 48.0148346,12.0333314 47.7425,12.426 C47.4701653,12.8186686 47.334,13.2999971 47.334,13.87 L47.334,19 L44.199,19 L44.199,9.538 L47.22,9.538 L47.22,10.849 L47.258,10.849 C47.3720005,10.6463323 47.5144991,10.4500009 47.6855,10.26 C47.8565008,10.069999 48.0623321,9.9021674 48.303,9.7565 C48.5436678,9.61083261 48.8128318,9.49366711 49.1105,9.405 C49.4081681,9.31633289 49.7343315,9.272 50.089,9.272 C50.7730034,9.272 51.3524976,9.41133194 51.8275,9.69 C52.3025023,9.96866806 52.6729986,10.3676641 52.939,10.887 C53.2556682,10.3929975 53.6609975,10.0003348 54.155,9.709 C54.6490024,9.41766521 55.2506631,9.272 55.96,9.272 C56.6060032,9.272 57.1474978,9.3891655 57.5845,9.6235 C58.0215021,9.8578345 58.3729986,10.1618315 58.639,10.5355 C58.9050013,10.9091685 59.098166,11.3271644 59.2185,11.7895 C59.3388339,12.2518356 59.399,12.7046645 59.399,13.148 L59.399,19 L56.283,19 Z" transform="translate(-1 -4)"/>
</svg>
